<svg width="45" height="43" viewBox="0 0 45 43" fill="none" xmlns="http://www.w3.org/2000/svg">
<path d="M24.6865 0.00929383C24.6416 0.00449687 24.5964 0 24.5515 0C23.3547 0 22.5267 1.00345 22.5267 2.24137C22.5267 3.46134 22.9856 4.45304 24.7853 4.47852V4.48542C33.3336 4.60654 40.811 12.1629 40.811 21.4375C40.811 30.7866 33.3922 38.5009 24.3581 38.5009C15.7356 38.5009 8.57785 31.768 7.94744 22.9227H11.7516L5.88037 12.8222L0.0117188 22.9234H3.61105C4.24725 34.0977 13.2771 42.9809 24.2862 42.9809C35.7092 42.9809 45.0044 33.3156 45.0044 21.492C45.0044 9.81044 35.925 0.230319 24.6867 0.00927495L24.6865 0.00929383Z" fill="#F36C35"/>
<path d="M26.5836 10.4504C26.5836 9.39567 25.7651 8.49023 24.7483 8.49023H24.3519C23.335 8.49023 22.5346 9.39598 22.5346 10.4504V21.7198L17.2007 27.23C16.4133 28.0449 16.4539 29.3671 17.1984 30.1774C17.9453 30.9968 19.2542 30.9968 20.0416 30.1774L25.9358 24.0778C25.9807 24.0265 26.0169 23.9752 26.0618 23.9288C26.3857 23.5819 26.5833 23.1115 26.5833 22.5925L26.583 10.4504L26.5836 10.4504Z" fill="#F36C35"/>
</svg>
