<svg width="202" height="60" viewBox="0 0 202 60" fill="none" xmlns="http://www.w3.org/2000/svg">
<path fill-rule="evenodd" clip-rule="evenodd" d="M12.9382 0.00186209L188.573 0C193.242 0 194.935 0.487334 196.642 1.40245C198.349 2.31756 199.688 3.66045 200.601 5.37156L200.79 5.73911C201.581 7.34036 202 9.11424 202 13.4604V46.5396L201.993 47.498C201.928 51.4626 201.449 53.0396 200.601 54.6284C199.688 56.3396 198.349 57.6824 196.642 58.5976L196.275 58.7871C194.678 59.5798 192.908 60 188.573 60H13.4272L12.4711 59.9926C8.51631 59.9282 6.94326 59.4473 5.3583 58.5976C3.65141 57.6824 2.31184 56.3396 1.39898 54.6284L1.20993 54.2609C0.419164 52.6596 0 50.8858 0 46.5396V13.4604C0 8.77992 0.486131 7.08267 1.39898 5.37156C2.31184 3.66045 3.65141 2.31756 5.3583 1.40245L5.72494 1.21292C7.2608 0.450691 8.95588 0.0328743 12.9382 0.00186209Z" fill="#242628"/>
<path fill-rule="evenodd" clip-rule="evenodd" d="M70.953 15.3643C70.953 16.6213 70.5804 17.6233 69.8368 18.3688C68.9929 19.2568 67.8931 19.7008 66.539 19.7008C65.2432 19.7008 64.1419 19.2508 63.2351 18.3493C62.3284 17.4493 61.875 16.3318 61.875 14.9998C61.875 13.6663 62.3284 12.5503 63.2351 11.6503C64.1419 10.7488 65.2432 10.2988 66.539 10.2988C67.1824 10.2988 67.7973 10.4248 68.3824 10.6753C68.9659 10.9273 69.4358 11.2618 69.7859 11.6818L68.9974 12.4723C68.4018 11.7613 67.5849 11.4058 66.539 11.4058C65.5933 11.4058 64.7778 11.7373 64.088 12.4048C63.3982 13.0708 63.0526 13.9363 63.0526 14.9998C63.0526 16.0633 63.3982 16.9288 64.088 17.5948C64.7778 18.2623 65.5933 18.5938 66.539 18.5938C67.5415 18.5938 68.3779 18.2593 69.0467 17.5903C69.4807 17.1538 69.732 16.5463 69.7994 15.7663H66.539V14.6863H70.8902C70.9321 14.9203 70.953 15.1468 70.953 15.3643Z" fill="white"/>
<path fill-rule="evenodd" clip-rule="evenodd" d="M70.9542 15.3644H70.8046C70.8031 16.5929 70.4455 17.5469 69.7332 18.2624L69.7317 18.2639L69.7303 18.2654C68.9133 19.1219 67.8614 19.5494 66.5402 19.5509C65.2788 19.5494 64.2239 19.1174 63.3426 18.2429C62.4627 17.3684 62.0273 16.2989 62.0258 14.9999C62.0273 13.7009 62.4627 12.6314 63.3426 11.7569C64.2239 10.8824 65.2788 10.4504 66.5402 10.4489C67.1641 10.4489 67.7581 10.5704 68.3237 10.8134C68.8908 11.0579 69.3397 11.3789 69.6734 11.7779L69.7871 11.6819L69.6809 11.5754L68.8923 12.3674L68.9986 12.4724L69.1123 12.3764C68.4913 11.6294 67.6175 11.2529 66.5402 11.2559C65.5601 11.2544 64.6982 11.6054 63.9845 12.2969C63.2648 12.9899 62.9027 13.9034 62.9042 14.9999C62.9027 16.0964 63.2648 17.0099 63.9845 17.7029C64.6982 18.3944 65.5601 18.7454 66.5402 18.7454C67.5756 18.7469 68.4584 18.3944 69.1542 17.6954C69.618 17.2289 69.8814 16.5839 69.9502 15.7799L69.9637 15.6164H66.6898V14.8349H70.8914V14.6864L70.7432 14.7119C70.7836 14.9399 70.8046 15.1559 70.8046 15.3644H71.1039C71.1039 15.1364 71.0814 14.9024 71.038 14.6594L71.0156 14.5364H66.3905V15.9164H69.8006V15.7664L69.6509 15.7544C69.5851 16.5089 69.3457 17.0774 68.9417 17.4839C68.2983 18.1259 67.5098 18.4439 66.5402 18.4454C65.6304 18.4439 64.8583 18.1289 64.1925 17.4884C63.5326 16.8479 63.2049 16.0319 63.2034 14.9999C63.2049 13.9679 63.5326 13.1519 64.1925 12.5114C64.8583 11.8709 65.6304 11.5559 66.5402 11.5559C67.5531 11.5574 68.3163 11.8934 68.8833 12.5699L68.9881 12.6944L69.8933 11.7869L69.9906 11.6909L69.9023 11.5844C69.5342 11.1449 69.0435 10.7969 68.4419 10.5374C67.8389 10.2794 67.203 10.1489 66.5402 10.1489C65.2099 10.1474 64.0623 10.6154 63.1316 11.5439C62.1964 12.4694 61.7251 13.6334 61.7266 14.9999C61.7251 16.3664 62.1964 17.5304 63.1316 18.4574C64.0623 19.3844 65.2099 19.8524 66.5402 19.8509C67.9257 19.8524 69.0749 19.3904 69.9472 18.4724L69.838 18.3689L69.9442 18.4754C70.7193 17.6984 71.1039 16.6499 71.1039 15.3644H70.9542Z" fill="white"/>
<path fill-rule="evenodd" clip-rule="evenodd" d="M77.8509 11.6055H73.7615V14.46H77.4484V15.54H73.7615V18.3945H77.8509V19.5H72.6094V10.5H77.8509V11.6055Z" fill="white"/>
<path fill-rule="evenodd" clip-rule="evenodd" d="M77.8482 11.6056V11.4556H73.6092V14.6101H77.2961V15.3901H73.6092V18.5446H77.6986V19.3501H72.7563V10.6501H77.6986V11.6056H77.8482V11.4556V11.6056H77.9978V10.3501H72.457V19.6501H77.9978V18.2446H73.9084V15.6901H77.5953V14.3101H73.9084V11.7556H77.9978V11.6056H77.8482Z" fill="white"/>
<path fill-rule="evenodd" clip-rule="evenodd" d="M82.7122 19.5H81.5571V11.6055H79.0508V10.5H85.22V11.6055H82.7122V19.5Z" fill="white"/>
<path fill-rule="evenodd" clip-rule="evenodd" d="M82.7149 19.5001V19.3501H81.7094V11.4556H79.2016V10.6501H85.0731V11.4556H82.5653V19.5001H82.7149V19.3501V19.5001H82.8645V11.7556H85.3723V10.3501H78.9023V11.7556H81.4101V19.6501H82.8645V19.5001H82.7149Z" fill="white"/>
<path fill-rule="evenodd" clip-rule="evenodd" d="M89.6836 19.5H90.8372V10.5H89.6836V19.5Z" fill="white"/>
<path fill-rule="evenodd" clip-rule="evenodd" d="M89.6848 19.5001H89.8344V10.6501H90.6873V19.3501H89.6848V19.5001H89.8344H89.6848V19.6501H90.9881V10.3501H89.5352V19.6501H89.6848V19.5001Z" fill="white"/>
<path fill-rule="evenodd" clip-rule="evenodd" d="M95.9544 19.5H94.8008V11.6055H92.293V10.5H98.4622V11.6055H95.9544V19.5Z" fill="white"/>
<path fill-rule="evenodd" clip-rule="evenodd" d="M95.9556 19.5001V19.3501H94.9516V11.4556H92.4438V10.6501H98.3138V11.4556H95.806V19.5001H95.9556V19.3501V19.5001H96.1052V11.7556H98.613V10.3501H92.1445V11.7556H94.6523V19.6501H96.1052V19.5001H95.9556Z" fill="white"/>
<path fill-rule="evenodd" clip-rule="evenodd" d="M104.408 17.5828C105.074 18.2578 105.887 18.5938 106.847 18.5938C107.81 18.5938 108.624 18.2578 109.286 17.5828C109.951 16.9078 110.284 16.0468 110.284 14.9998C110.284 13.9528 109.951 13.0918 109.286 12.4168C108.624 11.7418 107.81 11.4058 106.847 11.4058C105.887 11.4058 105.074 11.7418 104.408 12.4168C103.746 13.0918 103.412 13.9528 103.412 14.9998C103.412 16.0468 103.746 16.9078 104.408 17.5828ZM110.139 18.3373C109.258 19.2463 108.16 19.7008 106.847 19.7008C105.535 19.7008 104.438 19.2463 103.557 18.3373C102.674 17.4283 102.234 16.3153 102.234 14.9998C102.234 13.6843 102.674 12.5713 103.557 11.6623C104.438 10.7533 105.535 10.2988 106.847 10.2988C108.152 10.2988 109.248 10.7548 110.133 11.6683C111.019 12.5818 111.462 13.6918 111.462 14.9998C111.462 16.3153 111.021 17.4283 110.139 18.3373Z" fill="white"/>
<path fill-rule="evenodd" clip-rule="evenodd" d="M104.41 17.5829L104.303 17.6879C104.993 18.3899 105.852 18.7469 106.849 18.7454C107.845 18.7469 108.706 18.3899 109.394 17.6879C110.088 16.9874 110.437 16.0784 110.435 14.9999C110.437 13.9214 110.088 13.0139 109.394 12.3119C108.706 11.6099 107.845 11.2544 106.849 11.2559C105.852 11.2544 104.993 11.6099 104.303 12.3119C103.612 13.0139 103.262 13.9214 103.264 14.9999C103.262 16.0784 103.612 16.9874 104.303 17.6879L104.517 17.4779C103.881 16.8314 103.564 16.0154 103.563 14.9999C103.564 13.9844 103.881 13.1684 104.517 12.5219H104.516C105.158 11.8739 105.922 11.5574 106.849 11.5559C107.776 11.5574 108.542 11.8739 109.181 12.5219C109.817 13.1699 110.135 13.9844 110.136 14.9999C110.135 16.0154 109.817 16.8299 109.181 17.4779C108.542 18.1259 107.776 18.4439 106.849 18.4454C105.922 18.4424 105.158 18.1259 104.516 17.4779L104.41 17.5829ZM110.141 18.3374L110.034 18.2324C109.177 19.1144 108.126 19.5494 106.849 19.5509C105.571 19.5494 104.522 19.1144 103.666 18.2324L103.662 18.2279L103.666 18.2324C102.81 17.3489 102.387 16.2824 102.385 14.9999C102.387 13.7174 102.81 12.6509 103.666 11.7674C104.522 10.8854 105.571 10.4504 106.849 10.4489C108.119 10.4504 109.165 10.8884 110.028 11.7734C110.887 12.6614 111.312 13.7264 111.314 14.9999C111.312 16.2824 110.889 17.3489 110.034 18.2324L110.248 18.4409C111.156 17.5079 111.614 16.3484 111.613 14.9999C111.614 13.6589 111.154 12.5024 110.242 11.5649C109.331 10.6229 108.188 10.1474 106.849 10.1489C105.502 10.1474 104.357 10.6214 103.451 11.5589C102.542 12.4934 102.084 13.6514 102.086 14.9999C102.084 16.3484 102.542 17.5079 103.451 18.4409L103.455 18.4454L103.451 18.4409C104.357 19.3799 105.502 19.8524 106.849 19.8509C108.195 19.8524 109.341 19.3799 110.248 18.4409L110.141 18.3374Z" fill="white"/>
<path fill-rule="evenodd" clip-rule="evenodd" d="M113.082 19.5V10.5H114.487L118.85 17.5005H118.9L118.85 15.7665V10.5H120.004V19.5H118.799L114.236 12.159H114.185L114.236 13.8945V19.5H113.082Z" fill="white"/>
<path fill-rule="evenodd" clip-rule="evenodd" d="M113.083 19.5001H113.233V10.6501H114.404L118.768 17.6521H119.055L119.001 15.7651V10.6501H119.855V19.3501H118.884L114.319 12.0091H114.033L114.087 13.8961V19.3501H113.083V19.5001H113.233H113.083V19.6501H114.386V13.8916L114.336 12.1561L114.186 12.1591V12.3091H114.237V12.1591L114.11 12.2386L118.718 19.6501H120.155V10.3501H118.702V15.7696L118.751 17.5051L118.901 17.5006V17.3521H118.851V17.5006L118.979 17.4226L114.571 10.3501H112.934V19.6501H113.083V19.5001Z" fill="white"/>
<path fill-rule="evenodd" clip-rule="evenodd" d="M160.007 44.9998H162.799V26.2483H160.007V44.9998ZM185.155 33.0028L181.955 41.1328H181.859L178.537 33.0028H175.53L180.511 44.3653L177.671 50.6863H180.584L188.26 33.0028H185.155ZM169.322 42.8698C168.406 42.8698 167.131 42.4123 167.131 41.2783C167.131 39.8308 168.72 39.2758 170.091 39.2758C171.319 39.2758 171.895 39.5413 172.642 39.9028C172.425 41.6398 170.933 42.8698 169.322 42.8698ZM169.658 32.5933C167.637 32.5933 165.543 33.4858 164.677 35.4643L167.155 36.5008C167.685 35.4643 168.671 35.1253 169.706 35.1253C171.15 35.1253 172.618 35.9938 172.642 37.5388V37.7308C172.136 37.4413 171.054 37.0078 169.73 37.0078C167.059 37.0078 164.339 38.4793 164.339 41.2288C164.339 43.7383 166.529 45.3553 168.983 45.3553C170.861 45.3553 171.895 44.5108 172.546 43.5208H172.642V44.9683H175.337V37.7803C175.337 34.4503 172.859 32.5933 169.658 32.5933ZM152.403 35.2858H148.432V28.8583H152.403C154.49 28.8583 155.675 30.5908 155.675 32.0713C155.675 33.5248 154.49 35.2858 152.403 35.2858ZM152.331 26.2483H145.641V44.9998H148.432V37.8958H152.331C155.425 37.8958 158.467 35.6488 158.467 32.0713C158.467 28.4938 155.425 26.2483 152.331 26.2483ZM115.85 42.8728C113.921 42.8728 112.307 41.2543 112.307 39.0313C112.307 36.7843 113.921 35.1403 115.85 35.1403C117.755 35.1403 119.248 36.7843 119.248 39.0313C119.248 41.2543 117.755 42.8728 115.85 42.8728ZM119.055 34.0528H118.959C118.332 33.3043 117.128 32.6278 115.609 32.6278C112.426 32.6278 109.51 35.4298 109.51 39.0313C109.51 42.6073 112.426 45.3868 115.609 45.3868C117.128 45.3868 118.332 44.7103 118.959 43.9363H119.055V44.8543C119.055 47.2963 117.755 48.6013 115.657 48.6013C113.945 48.6013 112.884 47.3683 112.45 46.3288L110.016 47.3443C110.715 49.0363 112.572 51.1138 115.657 51.1138C118.935 51.1138 121.708 49.1803 121.708 44.4688V33.0133H119.055V34.0528ZM123.637 44.9998H126.433V26.2468H123.637V44.9998ZM130.554 38.8138C130.482 36.3493 132.459 35.0923 133.88 35.0923C134.991 35.0923 135.93 35.6473 136.243 36.4453L130.554 38.8138ZM139.233 36.6868C138.703 35.2618 137.087 32.6278 133.785 32.6278C130.506 32.6278 127.783 35.2123 127.783 39.0073C127.783 42.5833 130.482 45.3868 134.097 45.3868C137.015 45.3868 138.703 43.5988 139.402 42.5593L137.232 41.1088C136.509 42.1723 135.52 42.8728 134.097 42.8728C132.676 42.8728 131.663 42.2203 131.012 40.9408L139.521 37.4128L139.233 36.6868ZM71.4383 34.5853V37.2913H77.8978C77.7048 38.8138 77.1991 39.9253 76.4285 40.6993C75.4873 41.6413 74.0165 42.6793 71.4383 42.6793C67.4612 42.6793 64.3504 39.4663 64.3504 35.4793C64.3504 31.4908 67.4612 28.2778 71.4383 28.2778C73.584 28.2778 75.1506 29.1238 76.3073 30.2113L78.2121 28.3018C76.5961 26.7553 74.4519 25.5703 71.4383 25.5703C65.9903 25.5703 61.4102 30.0178 61.4102 35.4793C61.4102 40.9408 65.9903 45.3868 71.4383 45.3868C74.3786 45.3868 76.5961 44.4208 78.3318 42.6073C80.1154 40.8193 80.6705 38.3068 80.6705 36.2758C80.6705 35.6473 80.6226 35.0683 80.5253 34.5853H71.4383ZM88.0158 42.8728C86.0871 42.8728 84.4232 41.2783 84.4232 39.0073C84.4232 36.7108 86.0871 35.1403 88.0158 35.1403C89.943 35.1403 91.6069 36.7108 91.6069 39.0073C91.6069 41.2783 89.943 42.8728 88.0158 42.8728ZM88.0158 32.6278C84.495 32.6278 81.6266 35.3098 81.6266 39.0073C81.6266 42.6793 84.495 45.3868 88.0158 45.3868C91.5351 45.3868 94.4035 42.6793 94.4035 39.0073C94.4035 35.3098 91.5351 32.6278 88.0158 32.6278ZM101.951 42.8728C100.022 42.8728 98.3582 41.2783 98.3582 39.0073C98.3582 36.7108 100.022 35.1403 101.951 35.1403C103.88 35.1403 105.542 36.7108 105.542 39.0073C105.542 41.2783 103.88 42.8728 101.951 42.8728ZM101.951 32.6278C98.4315 32.6278 95.5631 35.3098 95.5631 39.0073C95.5631 42.6793 98.4315 45.3868 101.951 45.3868C105.47 45.3868 108.338 42.6793 108.338 39.0073C108.338 35.3098 105.47 32.6278 101.951 32.6278Z" fill="white"/>
<path fill-rule="evenodd" clip-rule="evenodd" d="M15.7254 48.585L15.6132 48.477C15.1792 48.015 14.9219 47.2995 14.9219 46.3695V46.5885V13.4145C14.9219 13.4115 14.9219 13.41 14.9219 13.407C14.9219 13.41 14.9219 13.413 14.9219 13.4145V13.635C14.9219 12.6285 15.2211 11.871 15.7239 11.4165L34.2615 30.0015L15.7254 48.585ZM14.9219 13.4055C14.9219 13.323 14.9234 13.242 14.9279 13.1625C14.9234 13.242 14.9219 13.323 14.9219 13.4055Z" fill="url(#paint0_linear_2031_2522)"/>
<path fill-rule="evenodd" clip-rule="evenodd" d="M40.4414 36.4167L40.5821 36.3372L47.9035 32.1672C48.6007 31.7697 49.0661 31.2867 49.298 30.7767C49.0661 31.2867 48.6022 31.7697 47.9035 32.1672L40.5821 36.3372L40.4414 36.4167ZM40.4429 36.1977L34.2617 30.0012L40.4429 23.8047L47.9035 28.0542C48.8506 28.5942 49.3833 29.2902 49.4716 29.9997C49.4716 30.0012 49.4716 30.0012 49.4716 30.0027C49.3833 30.7122 48.8506 31.4082 47.9035 31.9482L40.4429 36.1977Z" fill="url(#paint1_linear_2031_2522)"/>
<path fill-rule="evenodd" clip-rule="evenodd" d="M17.0454 49.2915C16.5277 49.2915 16.0758 49.1235 15.7227 48.804H15.7242C16.0758 49.122 16.5292 49.2915 17.0469 49.2915C17.0918 49.2915 17.1367 49.2915 17.183 49.2885C17.1367 49.2915 17.0903 49.2915 17.0454 49.2915ZM17.0454 49.0725C16.5277 49.0725 16.0758 48.903 15.7242 48.585L34.2603 30.0015L40.4415 36.198L18.7227 48.5685C18.1212 48.9105 17.5526 49.0725 17.0454 49.0725Z" fill="url(#paint2_linear_2031_2522)"/>
<path fill-rule="evenodd" clip-rule="evenodd" d="M34.2603 30.0014L15.7227 11.4164C16.0743 11.0984 16.5262 10.9304 17.0439 10.9304C17.5496 10.9304 18.1197 11.0924 18.7227 11.4344L40.4415 23.8049L34.2603 30.0014ZM40.5806 23.6654L18.7227 11.2154C18.1212 10.8734 17.5496 10.7114 17.0439 10.7114C17.0409 10.7114 17.0394 10.7114 17.0364 10.7114C17.0394 10.7114 17.0424 10.7114 17.0454 10.7114C17.5511 10.7114 18.1212 10.8719 18.7227 11.2154L40.5806 23.6654Z" fill="url(#paint3_linear_2031_2522)"/>
<defs>
<linearGradient id="paint0_linear_2031_2522" x1="24.5917" y1="11.4165" x2="24.5917" y2="48.585" gradientUnits="userSpaceOnUse">
<stop stop-color="#00C3FF"/>
<stop offset="1" stop-color="#00E3FF"/>
</linearGradient>
<linearGradient id="paint1_linear_2031_2522" x1="41.8666" y1="23.8047" x2="41.8666" y2="36.4167" gradientUnits="userSpaceOnUse">
<stop stop-color="#FFC800"/>
<stop offset="1" stop-color="#FFC900"/>
</linearGradient>
<linearGradient id="paint2_linear_2031_2522" x1="37.1599" y1="35.8879" x2="9.88548" y2="63.2054" gradientUnits="userSpaceOnUse">
<stop stop-color="#FF3944"/>
<stop offset="1" stop-color="#C31161"/>
</linearGradient>
<linearGradient id="paint3_linear_2031_2522" x1="28.1516" y1="10.7114" x2="28.1516" y2="30.0014" gradientUnits="userSpaceOnUse">
<stop stop-color="#11D574"/>
<stop offset="1" stop-color="#00F076"/>
</linearGradient>
</defs>
</svg>
