<svg width="80" height="35" viewBox="0 0 80 35" fill="none" xmlns="http://www.w3.org/2000/svg">
<path d="M0 3.73771H3.64585V6.65479H7.71293L7.73439 9.52703H3.64585V16.1331H0V3.73771ZM15.9992 0C17.9864 0 19.7227 0.330075 21.2081 0.990226C22.6935 1.65038 23.8412 2.58505 24.6512 3.79424C25.4611 5.00408 25.8664 6.42705 25.8671 8.06313V8.08944C25.8671 9.73267 25.4598 11.1556 24.6453 12.3583C23.8308 13.561 22.6851 14.4925 21.2081 15.1526C19.7306 15.8167 17.9942 16.1483 15.9992 16.1477C14.1453 16.1477 12.5201 15.866 11.1238 15.3027C9.72746 14.7394 8.59929 13.9392 7.73926 12.9022C6.88379 11.8626 6.37024 10.63 6.19863 9.20442L6.1762 7.20253C6.32571 5.72304 6.81878 4.4453 7.6554 3.3693C8.49203 2.29331 9.62085 1.4626 11.0419 0.877169C12.4636 0.29239 14.116 0 15.9992 0ZM16.165 13.3369C17.3728 13.3369 18.4262 13.1179 19.3252 12.68C20.1861 12.2755 20.9101 11.6285 21.408 10.8184C21.8988 10.0153 22.1439 9.07317 22.1432 7.99198V7.97054C22.1432 6.88025 21.8965 5.93583 21.4031 5.13728C20.901 4.33093 20.1782 3.68526 19.3204 3.27671C18.4252 2.83488 17.3734 2.61396 16.165 2.61396C14.9565 2.61396 13.9031 2.83488 13.0047 3.27671C12.1451 3.68309 11.4232 4.33186 10.9278 5.14313C10.4422 5.94558 10.1991 6.88772 10.1984 7.96956V7.99198C10.1984 9.07512 10.4432 10.0173 10.9327 10.8184C11.4314 11.628 12.1556 12.2746 13.0164 12.679C13.9155 13.1176 14.965 13.3369 16.165 13.3369Z" fill="#242628"/>
<path d="M28.2656 0.0175781H31.9115V16.1477H28.2656V0.0175781ZM30.0998 8.25712H37.2598C38.2759 8.25712 39.0585 8.01931 39.6078 7.54368C40.1571 7.06806 40.4315 6.39264 40.4308 5.51743V5.49598C40.4308 4.62726 40.1565 3.95509 39.6078 3.47947C39.0592 3.00385 38.2765 2.76636 37.2598 2.76701H30.0998V0.0175781H37.8566C39.1443 0.0175781 40.2566 0.244992 41.1933 0.69982C42.0837 1.11195 42.8358 1.77265 43.359 2.6023C43.8667 3.41904 44.1209 4.36866 44.1215 5.45115V5.47357C44.1215 6.5632 43.8673 7.51867 43.359 8.33996C42.8352 9.17438 42.081 9.83951 41.1875 10.2551C40.2488 10.7099 39.1385 10.9374 37.8566 10.9374H30.0998V8.25712Z" fill="#242628"/>
<path d="M0 26.4885H3.88084V29.4036H0V26.4885Z" fill="#242628"/>
<path d="M10.823 34.0144C9.34546 33.3523 8.20136 32.4173 7.39074 31.2094C6.58012 30.0015 6.17513 28.5799 6.17578 26.9444V26.923C6.17578 25.2876 6.58077 23.8675 7.39074 22.6629C8.20071 21.4582 9.34481 20.5242 10.823 19.8608C12.3 19.1981 14.033 18.8667 16.0222 18.8667C18.0114 18.8667 19.7444 19.1964 21.2214 19.8559C22.7054 20.5161 23.8525 21.4501 24.6624 22.658C25.4724 23.8659 25.8777 25.2876 25.8784 26.923V26.9444C25.8784 28.5792 25.4731 30.0009 24.6624 31.2094C23.8518 32.418 22.7058 33.353 21.2243 34.0144C19.7441 34.6752 18.0094 35.005 16.0203 35.0037C14.0311 35.0024 12.2987 34.6726 10.823 34.0144ZM19.2653 31.5301C20.1405 31.1489 20.8841 30.5188 21.4037 29.7183C21.9036 28.9327 22.1539 28.0094 22.1545 26.9483V26.9269C22.1545 25.8659 21.9023 24.9461 21.3979 24.1677C20.8714 23.3718 20.1266 22.7445 19.2527 22.3608C18.3283 21.9352 17.2511 21.722 16.0212 21.7214C14.7913 21.7207 13.7122 21.9319 12.7839 22.3549C11.9095 22.7384 11.1646 23.3662 10.6388 24.1628C10.1311 24.9426 9.87721 25.8639 9.87721 26.9269V26.9483C9.87721 28.01 10.1311 28.9333 10.6388 29.7183C11.1633 30.517 11.9085 31.1464 12.7839 31.5301C13.7038 31.9518 14.7825 32.1626 16.0203 32.1626C17.258 32.1626 18.339 31.9505 19.2634 31.5262L19.2653 31.5301Z" fill="#242628"/>
<path d="M41.833 34.9998V21.7389H31.7681V34.9998H28.2656V18.8677H45.3374V34.9998H41.833Z" fill="#242628"/>
<path d="M48.2656 23.0557H51.9115V34.9998H48.2656V23.0557ZM50.0998 32.2386H57.2267C58.2349 32.2386 59.015 32.0112 59.5669 31.5564C60.1188 31.1016 60.3931 30.4424 60.3899 29.5789V29.5565C60.3899 28.6955 60.1175 28.0351 59.5727 27.575C59.028 27.115 58.2434 26.8847 57.2189 26.884H50.1007V24.1872H57.7903C59.0806 24.1872 60.1952 24.4146 61.1338 24.8695C62.0256 25.2852 62.7805 25.9461 63.3102 26.7749C63.8231 27.589 64.0792 28.5295 64.0786 29.5964V29.6188C64.0786 30.6935 63.8261 31.6357 63.321 32.4453C62.8004 33.27 62.0495 33.9243 61.1611 34.3273C60.2264 34.7737 59.1213 34.9965 57.8458 34.9959H50.0959L50.0998 32.2386ZM65.9634 23.0557H69.6093V34.9998H65.9634V23.0557Z" fill="#242628"/>
<path d="M72.2381 21.7389H48.2656V18.8677H79.9988V21.7389H75.8732V34.9998H72.2381V21.7389Z" fill="#242628"/>
</svg>
