<svg width="122" height="53" viewBox="0 0 122 53" fill="none" xmlns="http://www.w3.org/2000/svg">
<path d="M0 5.65997H5.55992V10.0772H11.7622L11.7949 14.4266H5.55992V24.4301H0V5.65997ZM24.3988 0C27.4293 0 30.0772 0.499828 32.3424 1.49949C34.6076 2.49914 36.3578 3.9145 37.593 5.74557C38.8282 7.57761 39.4463 9.73239 39.4473 12.2099V12.2497C39.4473 14.738 38.8262 16.8928 37.5841 18.714C36.342 20.5353 34.5947 21.9457 32.3424 22.9454C30.0891 23.9509 27.4412 24.4532 24.3988 24.4522C21.5715 24.4522 19.0932 24.0257 16.9638 23.1727C14.8344 22.3196 13.1139 21.1079 11.8024 19.5376C10.4978 17.9633 9.71462 16.0968 9.4529 13.9381L9.4187 10.9067C9.64671 8.66632 10.3986 6.73145 11.6745 5.10209C12.9503 3.47272 14.6718 2.21479 16.8389 1.32828C19.0069 0.442761 21.5269 0 24.3988 0ZM24.6516 20.1958C26.4935 20.1958 28.1 19.8642 29.471 19.2011C30.7839 18.5887 31.8878 17.6089 32.6472 16.3822C33.3957 15.1661 33.7694 13.7394 33.7684 12.1021V12.0697C33.7684 10.4187 33.3922 8.98855 32.6398 7.77932C31.874 6.55827 30.7718 5.58054 29.4636 4.96188C28.0985 4.29282 26.4945 3.95829 24.6516 3.95829C22.8087 3.95829 21.2022 4.29282 19.8322 4.96188C18.5213 5.57726 17.4204 6.55967 16.6649 7.78817C15.9244 9.00331 15.5536 10.43 15.5526 12.0682V12.1021C15.5526 13.7423 15.9258 15.169 16.6723 16.3822C17.4329 17.6081 18.5372 18.5873 19.8501 19.1996C21.2211 19.8637 22.8216 20.1958 24.6516 20.1958Z" fill="#242628"/>
<path d="M43.1055 0.0263672H48.6654V24.452H43.1055V0.0263672ZM45.9025 12.5034H56.8216C58.3711 12.5034 59.5647 12.1433 60.4023 11.423C61.24 10.7028 61.6584 9.68004 61.6574 8.35471V8.32224C61.6574 7.00675 61.239 5.98889 60.4023 5.26866C59.5656 4.54844 58.3721 4.18882 56.8216 4.1898H45.9025V0.0263672H57.7317C59.6955 0.0263672 61.3917 0.370737 62.8202 1.05948C64.178 1.68356 65.3249 2.68405 66.1228 3.94038C66.8971 5.17716 67.2847 6.61515 67.2857 8.25435V8.28829C67.2857 9.93832 66.8981 11.3852 66.1228 12.6288C65.324 13.8924 64.1739 14.8996 62.8113 15.5289C61.3798 16.2177 59.6866 16.562 57.7317 16.562H45.9025V12.5034Z" fill="#242628"/>
<path d="M0 40.1113H5.91829V44.5257H0V40.1113Z" fill="#242628"/>
<path d="M16.505 51.5078C14.2517 50.5052 12.507 49.0894 11.2708 47.2603C10.0346 45.4312 9.41698 43.2784 9.41797 40.8018V40.7694C9.41797 38.2929 10.0356 36.1425 11.2708 34.3183C12.506 32.4942 14.2507 31.0798 16.505 30.0752C18.7574 29.0716 21.4003 28.5698 24.4338 28.5698C27.4673 28.5698 30.1102 29.0692 32.3625 30.0678C34.6257 31.0675 36.3749 32.4819 37.6101 34.311C38.8453 36.1401 39.4634 38.2929 39.4644 40.7694V40.8018C39.4644 43.2774 38.8463 45.4302 37.6101 47.2603C36.3739 49.0903 34.6262 50.5062 32.3669 51.5078C30.1097 52.5085 27.4643 53.0078 24.4308 53.0058C21.3973 53.0039 18.7554 52.5045 16.505 51.5078ZM29.3795 47.7458C30.7142 47.1685 31.8482 46.2144 32.6406 45.0022C33.4029 43.8126 33.7846 42.4145 33.7856 40.8077V40.7753C33.7856 39.1685 33.4009 37.7758 32.6316 36.5971C31.8288 35.3919 30.693 34.4419 29.3602 33.8608C27.9505 33.2164 26.3079 32.8936 24.4323 32.8927C22.5567 32.8917 20.911 33.2114 19.4954 33.852C18.162 34.4327 17.0259 35.3834 16.224 36.5897C15.4498 37.7704 15.0626 39.1656 15.0626 40.7753V40.8077C15.0626 42.4155 15.4498 43.8136 16.224 45.0022C17.0239 46.2117 18.1604 47.1648 19.4954 47.7458C20.8982 48.3844 22.5433 48.7037 24.4308 48.7037C26.3183 48.7037 27.9669 48.3824 29.3766 47.7399L29.3795 47.7458Z" fill="#242628"/>
<path d="M63.7957 52.9999V32.9192H48.4468V52.9999H43.1055V28.5713H69.14V52.9999H63.7957Z" fill="#242628"/>
<path d="M73.6055 34.9131H79.1654V52.9999H73.6055V34.9131ZM76.4025 48.8187H87.2711C88.8086 48.8187 89.9982 48.4744 90.8399 47.7856C91.6815 47.0969 92.0999 46.0987 92.0949 44.7911V44.7571C92.0949 43.4535 91.6795 42.4533 90.8488 41.7567C90.0181 41.0601 88.8215 40.7113 87.2592 40.7103H76.404V36.6266H88.1306C90.0984 36.6266 91.798 36.9709 93.2295 37.6597C94.5894 38.2892 95.7406 39.29 96.5485 40.545C97.3307 41.7779 97.7212 43.2021 97.7203 44.8177V44.8516C97.7203 46.479 97.3351 47.9057 96.5649 49.1316C95.771 50.3805 94.6259 51.3712 93.2711 51.9815C91.8456 52.6575 90.1603 52.995 88.2153 52.994H76.3966L76.4025 48.8187ZM100.595 34.9131H106.155V52.9999H100.595V34.9131Z" fill="#242628"/>
<path d="M110.164 32.9192H73.6055V28.5713H121.999V32.9192H115.707V52.9999H110.164V32.9192Z" fill="#242628"/>
</svg>
