<svg width="36" height="35" viewBox="0 0 36 35" fill="none" xmlns="http://www.w3.org/2000/svg">
<path d="M32.1875 13.1812V16.8689L35.0853 15.1783V15.1732H35.076C35.0881 14.9649 34.9738 14.7695 34.7862 14.6782L34.7909 14.6702L32.1875 13.1812Z" fill="#5AC8FA"/>
<path d="M4.37519 17.5437L17.705 25.3198L31.1263 17.4908H31.0347V0.683563C31.0347 0.529877 30.9736 0.382397 30.865 0.273732C30.7563 0.165066 30.6088 0.104004 30.4551 0.104004H4.95456C4.63451 0.104004 4.375 0.363514 4.375 0.683563L4.37519 17.5437ZM25.8189 16.3313H21.1824V15.1722H25.8189V16.3313ZM9.59121 3.58102H25.8189V4.74014H9.59121V3.58102ZM9.59121 6.47882H25.8189V7.63793H9.59121V6.47882ZM9.59121 9.37661H25.8189V10.5357H9.59121V9.37661ZM9.59121 12.2744H25.8189V13.4335H9.59121V12.2744Z" fill="#5AC8FA"/>
<path d="M3.21029 16.8684V13.1807L0.602276 14.6696L0.606933 14.6777C0.515602 14.7255 0.439279 14.7974 0.385979 14.8857C0.337855 14.9744 0.314829 15.0745 0.319486 15.1755H0.3125V15.1806L3.21029 16.8684Z" fill="#5AC8FA"/>
<path d="M35.0913 33.4335V16.519L20.5938 24.9766L35.0913 33.4335Z" fill="#5AC8FA"/>
<path d="M19.4405 25.6479L18.8521 25.9915L17.7018 26.6622L16.5515 25.9915L15.9632 25.6479L0.46875 34.6864C0.473407 34.6916 0.476771 34.6986 0.481428 34.7032L0.485568 34.7084C0.532916 34.7542 0.588027 34.7912 0.648308 34.8178C0.663832 34.8254 0.679097 34.8313 0.695139 34.8375C0.759045 34.8624 0.826317 34.8758 0.894619 34.8776H34.5143C34.5803 34.8758 34.6452 34.8626 34.7068 34.8388C34.7236 34.8329 34.7404 34.8261 34.7565 34.8186C34.816 34.7917 34.8706 34.755 34.9177 34.7102L34.9234 34.7022C34.928 34.6981 34.9309 34.6918 34.935 34.6877L19.4405 25.6479Z" fill="#5AC8FA"/>
<path d="M14.8101 24.9766L0.3125 16.519V33.4335L14.8101 24.9766Z" fill="#5AC8FA"/>
</svg>
