<svg width="36" height="35" viewBox="0 0 36 35" fill="none" xmlns="http://www.w3.org/2000/svg">
<path d="M19.8627 0.104004H3.98755C2.11156 0.104004 0.585938 1.63016 0.585938 3.50562V14.8455C0.585938 16.7214 2.11209 18.2471 3.98755 18.2471H5.12154V21.6487C5.12154 22.1076 5.39757 22.5208 5.82142 22.6961C6.23822 22.8695 6.72881 22.7787 7.05741 22.4499L11.2607 18.2465H19.8631C21.7391 18.2465 23.2647 16.7204 23.2647 14.8449V3.50644C23.2641 1.63044 21.738 0.104285 19.8625 0.104285L19.8627 0.104004ZM7.38883 10.3092C6.7622 10.3092 6.25485 9.8016 6.25485 9.1752C6.25485 8.54856 6.76244 8.04122 7.38883 8.04122C8.01547 8.04122 8.52282 8.5488 8.52282 9.1752C8.52282 9.80158 8.01471 10.3092 7.38883 10.3092ZM13.0586 9.17574C13.0586 9.80238 12.551 10.3097 11.9246 10.3097C11.298 10.3097 10.7907 9.80213 10.7907 9.17574C10.7907 8.5491 11.2982 8.04175 11.9246 8.04175C12.551 8.04149 13.0586 8.54908 13.0586 9.17574ZM16.4602 10.3092C15.8336 10.3092 15.3263 9.8016 15.3263 9.1752C15.3263 8.54856 15.8338 8.04122 16.4602 8.04122C17.0869 8.04122 17.5942 8.5488 17.5942 9.1752C17.5942 9.80158 17.0866 10.3092 16.4602 10.3092Z" fill="#FFCC00"/>
<path d="M33.132 12.4067C32.7675 12.273 32.3743 12.1997 31.9639 12.1997H24.4594V14.8452C24.4594 17.3766 22.4 19.4354 19.8692 19.4354H12.6875V26.9399C12.6875 28.8149 14.2147 30.3416 16.0891 30.3416H24.6921L28.8954 34.5449C29.1134 34.7628 29.403 34.8808 29.7078 34.8772C29.8462 34.8753 29.9881 34.8484 30.128 34.7945C30.5511 34.6129 30.8308 34.205 30.8308 33.7437V30.3421H31.9648C33.8397 30.3421 35.3664 28.8148 35.3664 26.9405V15.6013C35.3664 14.1361 34.4344 12.8836 33.1322 12.4061L33.132 12.4067ZM19.4907 22.4049C18.864 22.4049 18.3567 21.8973 18.3567 21.2709C18.3567 20.6443 18.8643 20.1369 19.4907 20.1369C20.1173 20.1369 20.6246 20.6445 20.6246 21.2709C20.6249 21.8973 20.1168 22.4049 19.4907 22.4049ZM25.1604 21.2709C25.1604 21.8975 24.6529 22.4049 24.0265 22.4049C23.3998 22.4049 22.8925 21.8973 22.8925 21.2709C22.8925 20.6443 23.4001 20.1369 24.0265 20.1369C24.6523 20.1374 25.1604 20.6448 25.1604 21.2709ZM28.5621 22.4049C27.9354 22.4049 27.4281 21.8973 27.4281 21.2709C27.4281 20.6443 27.9357 20.1369 28.5621 20.1369C29.1887 20.1369 29.696 20.6445 29.696 21.2709C29.696 21.8973 29.1885 22.4049 28.5621 22.4049Z" fill="#FFCC00"/>
</svg>
