<svg width="45" height="43" viewBox="0 0 45 43" fill="none" xmlns="http://www.w3.org/2000/svg">
<g clip-path="url(#clip0_2045_4338)">
<path fill-rule="evenodd" clip-rule="evenodd" d="M45.023 4.95881C45.023 3.64308 44.5147 2.38203 43.6095 1.45298C42.7058 0.522461 41.4789 0 40.1991 0H4.82389C3.54395 0 2.31721 0.522442 1.41345 1.45298C0.508245 2.38202 0 3.64317 0 4.95881V28.0999C0 29.4157 0.508227 30.6767 1.41345 31.6058C2.3172 32.5363 3.54404 33.0588 4.82389 33.0588H8.03982V41.3234C8.03982 41.9913 8.43211 42.5945 9.03188 42.851C9.63344 43.107 10.3247 42.965 10.7845 42.492L19.9613 33.0588H40.1987C41.4786 33.0588 42.7054 32.5363 43.6092 31.6058C44.5144 30.6768 45.0226 29.4156 45.0226 28.1L45.023 4.95881ZM41.807 4.95881V28.0999C41.807 28.5379 41.6384 28.9596 41.3358 29.2684C41.0354 29.5795 40.6251 29.7529 40.1991 29.7529H19.2956C18.8695 29.7529 18.4593 29.9263 18.1589 30.2373L11.2558 37.3331V31.4058C11.2558 30.4934 10.5354 29.7529 9.64779 29.7529H4.8239C4.39786 29.7529 3.98761 29.5795 3.68721 29.2684C3.38463 28.9596 3.21594 28.5379 3.21594 28.0999V4.9588C3.21594 4.52085 3.38463 4.09913 3.68721 3.79032C3.98762 3.47928 4.39787 3.30588 4.8239 3.30588H40.1991C40.6251 3.30588 41.0354 3.47928 41.3358 3.79032C41.6384 4.09913 41.807 4.52086 41.807 4.9588V4.95881ZM11.2557 23.1411H24.1194C25.0071 23.1411 25.7274 22.4006 25.7274 21.4882C25.7274 20.5758 25.0071 19.8353 24.1194 19.8353H11.2557C10.3681 19.8353 9.64778 20.5758 9.64778 21.4882C9.64778 22.4006 10.3681 23.1411 11.2557 23.1411ZM11.2557 13.2235H33.7672C34.6548 13.2235 35.3752 12.483 35.3752 11.5706C35.3752 10.6581 34.6548 9.91763 33.7672 9.91763H11.2557C10.3681 9.91763 9.64778 10.6581 9.64778 11.5706C9.64778 12.483 10.3681 13.2235 11.2557 13.2235Z" fill="#56CD79"/>
</g>
<defs>
<clipPath id="clip0_2045_4338">
<rect width="45" height="43" fill="white"/>
</clipPath>
</defs>
</svg>
