<svg width="38" height="43" viewBox="0 0 38 43" fill="none" xmlns="http://www.w3.org/2000/svg">
<path d="M37.9701 8.03774C37.9701 7.1689 37.278 6.43032 36.3699 6.34335C33.5586 5.99574 30.9202 5.38753 28.4547 4.51861C25.6432 3.47583 22.7888 2.21566 19.8908 0.695276C19.2853 0.347668 18.6798 0.347668 18.0742 0.695276C15.2627 2.21573 12.408 3.47583 9.55359 4.43164C6.95832 5.30049 4.27684 5.95241 1.63847 6.25638C0.773507 6.34335 0.0813977 7.03825 -0.00518359 7.95077C-0.264649 18.4213 2.244 27.1105 7.39107 33.8447C10.2023 37.494 13.7923 40.4919 18.0311 42.7511C18.2905 42.9684 18.6797 43.0117 18.9826 43.0117C19.2855 43.0117 19.5881 42.9248 19.9773 42.7944C24.1297 40.5352 27.7194 37.5373 30.5741 33.888C35.7208 27.1971 38.2295 18.5081 37.97 8.03756L37.9701 8.03774ZM34.2504 9.6018C34.2073 18.682 31.9581 26.1548 27.5463 31.8897C25.2539 34.8005 22.3992 37.3204 18.9824 39.3191C15.5221 37.2771 12.6674 34.7572 10.4617 31.8897C6.04995 26.1113 3.80107 18.6386 3.75759 9.6018C6.09304 9.21086 8.42881 8.60262 10.9375 7.77707C13.5328 6.86454 16.2574 5.69173 18.9824 4.3013C21.8803 5.73502 24.5617 6.90822 27.0273 7.77707C29.6225 8.60231 32.0011 9.21056 34.2504 9.6018H34.2504Z" fill="#01AAAD"/>
</svg>
