<svg width="46" height="43" viewBox="0 0 46 43" fill="none" xmlns="http://www.w3.org/2000/svg">
<path fill-rule="evenodd" clip-rule="evenodd" d="M11.3268 24.432L0.806403 20.2907C-0.262086 19.8684 -0.27136 18.2774 0.794097 17.844L43.97 0.277469C44.8853 -0.0959111 45.8298 0.749885 45.6304 1.76365L37.8822 41.0718C37.6996 41.9999 36.6679 42.4207 35.9397 41.8624L25.3627 33.7635C24.7202 33.2716 23.8446 33.2979 23.23 33.8262L17.3658 38.8683C16.685 39.4552 15.6594 39.1282 15.3988 38.2437L11.3268 24.432ZM35.3026 8.87156L14.7419 22.2273C13.9538 22.7403 13.5828 23.7439 13.8374 24.6837L16.0604 32.9221C16.2182 33.5058 17.0217 33.446 17.0982 32.8428L17.6762 28.325C17.7852 27.4744 18.17 26.6907 18.7664 26.1052L35.735 9.46963C36.0523 9.15917 35.6721 8.6322 35.3026 8.87156Z" fill="#242628"/>
<path d="M14.7419 22.2273L35.3026 8.87156C35.6721 8.6322 36.0523 9.15917 35.735 9.46963L18.7664 26.1052C18.17 26.6907 17.7852 27.4744 17.6762 28.325L17.0982 32.8428C17.0217 33.446 16.2182 33.5058 16.0604 32.9221L13.8374 24.6837C13.5828 23.7439 13.9538 22.7403 14.7419 22.2273Z" fill="#EAEAEA"/>
</svg>
