<svg width="42" height="35" viewBox="0 0 42 35" fill="none" xmlns="http://www.w3.org/2000/svg">
<path d="M3.84538 24.4453H25.8945C27.8692 24.4453 29.4587 22.8888 29.4587 20.9558V3.5939C29.4587 1.66051 27.8688 0.104357 25.8945 0.104357L3.84538 0.103979C1.87066 0.103979 0.28125 1.66052 0.28125 3.59352V20.9554C0.28125 22.8888 1.87106 24.4449 3.84538 24.4449V24.4453Z" fill="#007AFF"/>
<path d="M39.6298 21.87C39.3881 21.861 39.1517 21.7769 38.9419 21.6246L31.9219 16.5081V8.0385L38.9419 2.92198V2.92236C39.3958 2.59221 39.9547 2.59258 40.4082 2.92311C40.862 3.25401 41.1415 3.86494 41.1422 4.52635V20.0203C41.1415 20.5212 40.9802 21.0006 40.6953 21.3489C40.4105 21.6972 40.0263 21.8852 39.6299 21.8697L39.6298 21.87Z" fill="#007AFF"/>
<circle cx="31.1415" cy="26.6185" r="8.25867" fill="white"/>
<path d="M31.1415 18.3599C26.6085 18.3599 22.9198 22.0488 22.8831 26.5635C22.8648 28.7658 23.7089 30.858 25.2689 32.418C26.8104 33.9963 28.8842 34.8589 31.0865 34.8772H31.1415C35.6744 34.8772 39.3632 31.1883 39.3999 26.6736C39.4366 22.1221 35.7478 18.3966 31.1415 18.3599L31.1415 18.3599ZM35.1422 29.3715L34.7752 29.7385C34.1696 30.3441 33.6557 30.491 32.8482 30.2523C32.004 29.9954 31.2516 29.5366 30.5725 28.986C29.5999 28.1969 28.5538 27.169 27.8748 26.1046C27.1958 25.0033 26.9755 23.8472 27.9298 22.8929L28.2969 22.5258C28.5538 22.2689 28.9758 22.2689 29.2512 22.5258L30.3339 23.6086C30.5908 23.8655 30.5908 24.2876 30.3339 24.563L29.6915 25.2054L29.7098 25.2237C30.4256 26.3065 31.3614 27.2425 32.4443 27.9583L32.4626 27.9766L33.105 27.3342C33.3619 27.0772 33.784 27.0772 34.0593 27.3342L35.1421 28.4169C35.4175 28.6924 35.4175 29.1145 35.1422 29.3714L35.1422 29.3715Z" fill="#34C759"/>
</svg>
