<svg width="49" height="29" viewBox="0 0 49 29" fill="none" xmlns="http://www.w3.org/2000/svg">
<path d="M41.6323 18.3862C43.2118 19.9757 44.8789 21.4713 46.2955 23.2211C46.9212 23.9987 47.5137 24.8012 47.9669 25.7036C48.6091 26.9864 48.0275 28.3981 46.9115 28.4747L39.9748 28.4715C38.1857 28.6245 36.7584 27.8821 35.5583 26.6212C34.5979 25.6128 33.7085 24.5396 32.785 23.4972C32.4065 23.0712 32.0102 22.6703 31.5368 22.3534C30.5898 21.7198 29.7678 21.9138 29.2267 22.9318C28.6756 23.9673 28.5506 25.1139 28.4964 26.2679C28.4221 27.9516 27.9284 28.3943 26.2876 28.4713C22.781 28.6418 19.4531 28.095 16.3616 26.2716C13.636 24.6641 11.5225 22.3948 9.68283 19.8258C6.10102 14.8233 3.35808 9.32632 0.892818 3.67538C0.337908 2.40222 0.743726 1.71879 2.10652 1.6946C4.36949 1.64929 6.63215 1.65251 8.89779 1.69138C9.81753 1.70525 10.4264 2.24902 10.7815 3.14467C12.0059 6.24783 13.504 9.20022 15.3845 11.9368C15.8852 12.6654 16.3959 13.394 17.123 13.9068C17.9275 14.4746 18.54 14.2864 18.9184 13.3627C19.1585 12.777 19.2637 12.1462 19.3178 11.5188C19.4971 9.36067 19.5207 7.20621 19.2063 5.05562C19.0132 3.71344 18.2798 2.84456 16.9805 2.59058C16.3175 2.46108 16.4162 2.20677 16.7372 1.81668C17.2948 1.14389 17.8192 0.725098 18.8646 0.725098H26.7042C27.9384 0.976182 28.2125 1.54769 28.3814 2.82779L28.3882 11.8041C28.3747 12.2997 28.6283 13.7702 29.4942 14.0982C30.1873 14.3317 30.6441 13.7602 31.0599 13.3072C32.937 11.2537 34.2766 8.8269 35.4734 6.31395C36.0045 5.20899 36.4612 4.06145 36.9038 2.91487C37.2317 2.06406 37.7462 1.64542 38.676 1.66396L46.2212 1.6709C46.4449 1.6709 46.6712 1.67429 46.8879 1.7125C48.1594 1.93585 48.5078 2.49962 48.1151 3.7794C47.4963 5.78727 46.2925 7.46052 45.1154 9.14152C43.8571 10.9362 42.5114 12.6694 41.2636 14.4748C40.1171 16.1234 40.2082 16.9543 41.6323 18.3862Z" fill="#242628"/>
</svg>
