<svg width="34" height="35" viewBox="0 0 34 35" fill="none" xmlns="http://www.w3.org/2000/svg">
<path d="M17.0301 0.234931C7.72569 0.234931 0.154063 7.80683 0.0787235 17.0739C0.0411486 21.5944 1.7738 25.889 4.97586 29.091C8.14005 32.3307 12.3968 34.1013 16.9172 34.1389H17.0302C26.3346 34.1389 33.9062 26.567 33.9816 17.2999C34.057 7.95744 26.4853 0.310206 17.0302 0.234863L17.0301 0.234931ZM25.2421 22.8376L24.4888 23.591C23.2457 24.8341 22.1909 25.1355 20.5334 24.6457C18.8005 24.1184 17.2562 23.1766 15.8623 22.0464C13.8658 20.4266 11.7185 18.3169 10.3248 16.1319C8.93112 13.8715 8.47895 11.4984 10.4378 9.53942L11.1912 8.78607C11.7185 8.25869 12.5849 8.25869 13.15 8.78607L15.3725 11.0086C15.8999 11.536 15.8999 12.4024 15.3725 12.9676L14.0539 14.2862L14.0915 14.3238C15.5606 16.5463 17.4816 18.4677 19.7044 19.9368L19.7419 19.9744L21.0605 18.6558C21.5879 18.1284 22.4542 18.1284 23.0194 18.6558L25.2419 20.8783C25.8073 21.4438 25.8073 22.3101 25.2421 22.8375L25.2421 22.8376Z" fill="#34C759"/>
</svg>
